<svg width="262" height="262" viewBox="0 0 262 262" fill="none" xmlns="http://www.w3.org/2000/svg">
<rect x="10" y="10" width="242" height="242" fill="#4713AD"/>
<path fill-rule="evenodd" clip-rule="evenodd" d="M105.981 226.899C109.042 200.63 131.431 180.238 158.604 180.238C185.777 180.238 208.166 200.63 211.227 226.899H105.981ZM155.293 169.642C154.192 169.534 153.1 169.373 152.014 169.157C150.929 168.941 149.857 168.674 148.799 168.355C147.74 168.034 146.7 167.663 145.677 167.241C144.656 166.819 143.657 166.349 142.681 165.828C141.706 165.308 140.758 164.742 139.838 164.129C138.918 163.517 138.031 162.861 137.176 162.161C136.32 161.462 135.501 160.722 134.719 159.942C133.937 159.162 133.196 158.347 132.493 157.493C131.792 156.641 131.134 155.756 130.519 154.839C129.904 153.922 129.336 152.978 128.814 152.005C128.293 151.032 127.821 150.037 127.398 149.018C126.974 147.999 126.602 146.962 126.281 145.908C125.959 144.852 125.691 143.784 125.475 142.702C125.259 141.62 125.097 140.531 124.988 139.433C124.88 138.336 124.826 137.236 124.826 136.133C124.826 135.03 124.88 133.93 124.988 132.833C125.097 131.735 125.259 130.646 125.475 129.564C125.691 128.482 125.959 127.414 126.281 126.359C126.602 125.303 126.974 124.266 127.397 123.248C127.821 122.229 128.293 121.233 128.814 120.26C129.336 119.288 129.904 118.343 130.519 117.426C131.134 116.509 131.792 115.625 132.493 114.772C133.196 113.92 133.937 113.104 134.719 112.324C135.501 111.544 136.32 110.804 137.176 110.105C138.031 109.406 138.918 108.749 139.838 108.137C140.758 107.524 141.706 106.958 142.681 106.437C143.657 105.918 144.656 105.447 145.677 105.025C146.7 104.603 147.74 104.231 148.799 103.912C149.857 103.592 150.929 103.324 152.014 103.109C153.1 102.894 154.192 102.732 155.293 102.624C156.394 102.516 157.497 102.462 158.604 102.462C159.71 102.462 160.814 102.516 161.915 102.624C163.015 102.732 164.109 102.894 165.193 103.109C166.279 103.324 167.351 103.592 168.409 103.912C169.468 104.231 170.509 104.603 171.53 105.025C172.552 105.447 173.552 105.918 174.527 106.437C175.503 106.958 176.45 107.524 177.37 108.137C178.29 108.749 179.177 109.406 180.032 110.105C180.887 110.804 181.706 111.544 182.489 112.324C183.271 113.104 184.013 113.92 184.714 114.772C185.416 115.625 186.074 116.509 186.689 117.426C187.304 118.343 187.872 119.288 188.393 120.26C188.915 121.233 189.387 122.229 189.811 123.248C190.234 124.266 190.606 125.303 190.928 126.359C191.248 127.414 191.517 128.482 191.733 129.564C191.948 130.646 192.111 131.735 192.219 132.833C192.327 133.93 192.382 135.03 192.382 136.133C192.382 137.236 192.327 138.336 192.219 139.433C192.111 140.531 191.948 141.62 191.733 142.702C191.517 143.784 191.248 144.852 190.928 145.908C190.606 146.962 190.234 147.999 189.811 149.018C189.387 150.037 188.915 151.032 188.393 152.005C187.872 152.978 187.304 153.922 186.689 154.839C186.074 155.756 185.416 156.641 184.714 157.493C184.013 158.347 183.271 159.162 182.489 159.942C181.706 160.722 180.887 161.462 180.032 162.161C179.177 162.861 178.29 163.517 177.37 164.129C176.45 164.742 175.503 165.308 174.527 165.828C173.552 166.349 172.552 166.819 171.53 167.241C170.509 167.663 169.468 168.034 168.409 168.355C167.351 168.674 166.279 168.941 165.193 169.157C164.109 169.373 163.015 169.534 161.915 169.642C160.814 169.75 159.71 169.805 158.604 169.805C157.497 169.805 156.394 169.75 155.293 169.642Z" fill="white"/>
<path fill-rule="evenodd" clip-rule="evenodd" d="M148.491 124.053C147.963 124.053 147.446 123.874 147.033 123.55L119.78 102.224H65.3406C58.1721 102.224 52.3401 96.4104 52.3401 89.2644V47.76C52.3401 40.614 58.1721 34.8 65.3406 34.8H147.965C155.134 34.8 160.966 40.614 160.966 47.76V89.2644C160.966 96.4104 155.134 102.224 147.965 102.224H140.482L150.458 120.377C150.724 120.766 150.864 121.223 150.864 121.699C150.864 122.996 149.805 124.053 148.502 124.053H148.491ZM65.3379 39.5097C60.7749 39.5097 57.0632 43.2114 57.0632 47.7609V89.2653C57.0632 93.8148 60.7766 97.5165 65.3406 97.5165H120.597C121.122 97.5165 121.64 97.6956 122.055 98.0196L140.883 112.753L134.427 101.002C134.028 100.277 134.042 99.384 134.465 98.6712C134.889 97.9593 135.667 97.5165 136.496 97.5165H147.965C152.53 97.5165 156.243 93.8148 156.243 89.2653V47.76C156.243 43.2096 152.53 39.5079 147.965 39.5079H65.3406L65.3379 39.5097ZM72.4021 80.1924C70.4509 80.1924 68.8542 78.6003 68.8542 76.6554C68.8542 74.7105 70.4509 73.1193 72.4021 73.1193H140.904C142.855 73.1193 144.452 74.7105 144.452 76.6554C144.452 78.6003 142.855 80.1924 140.904 80.1924H72.4021ZM72.4021 69.5868C70.4509 69.5868 68.8542 67.9956 68.8542 66.0507C68.8542 64.1058 70.4509 62.5137 72.4021 62.5137H140.904C142.855 62.5137 144.452 64.1058 144.452 66.0507C144.452 67.9956 142.855 69.5868 140.904 69.5868H72.4021ZM72.4021 58.9812C70.4509 58.9812 68.8542 57.39 68.8542 55.4451C68.8542 53.4993 70.4509 51.909 72.4021 51.909H140.904C142.855 51.909 144.452 53.4993 144.452 55.4451C144.452 57.39 142.855 58.9812 140.904 58.9812H72.4021Z" fill="white"/>
<mask id="mask0_421_38" style="mask-type:luminance" maskUnits="userSpaceOnUse" x="0" y="0" width="262" height="262">
<path fill-rule="evenodd" clip-rule="evenodd" d="M261.78 261.78V261.779H0V0H261.78V261.779V261.78ZM10.26 10.26V251.509H251.46V10.26H10.26V10.26Z" fill="white"/>
</mask>
<g mask="url(#mask0_421_38)">
<rect width="261.78" height="261.78" fill="white"/>
</g>
</svg>
