<svg width="350" height="85" viewBox="0 0 350 85" fill="none" xmlns="http://www.w3.org/2000/svg">
<path fill-rule="evenodd" clip-rule="evenodd" d="M24.0174 17.3529C23.5351 17.3529 23.0935 17.0721 22.8924 16.6374L16.4637 2.70451C16.3896 2.54372 16.3521 2.37232 16.3521 2.1951C16.3521 0.984726 17.3457 0 18.567 0H29.4678C30.6891 0 31.6827 0.984726 31.6827 2.1951C31.6827 2.35919 31.6503 2.51817 31.5864 2.6676C31.5774 2.68949 30.094 6.19839 28.5668 9.6525C27.6752 11.6705 26.9349 13.2939 26.3664 14.4774C25.2926 16.7094 24.942 17.3529 24.0174 17.3529ZM19.0665 2.4507L24.1316 13.428C25.2248 11.1451 27.0895 6.93881 28.9962 2.4507H19.0665H19.0665Z" fill="#0F0F0F"/>
<path fill-rule="evenodd" clip-rule="evenodd" d="M1.2375 80.9216C0.555298 80.9216 0 80.3717 0 79.6967V17.4671C0 16.7921 0.555298 16.2422 1.2375 16.2422H12.2291C13.2866 13.6114 15.3492 11.825 17.7201 11.825H30.3147C32.687 11.825 34.7494 13.6114 35.8063 16.2422H46.7973C47.4795 16.2422 48.0348 16.7921 48.0348 17.4671V79.6967C48.0348 80.3717 47.4795 80.9216 46.7973 80.9216H1.2375ZM2.4741 78.4754H45.5643V18.6956H36.4516C36.4853 18.9379 36.5112 19.1836 36.5292 19.4327H11.5056C11.5236 19.1836 11.5496 18.9379 11.5833 18.6956H2.4741V78.4754ZM15.7041 71.2556V68.8652H32.3235V71.2556H15.7041ZM7.39349 66.3551V63.9656H40.644V66.3551H7.39349ZM7.39349 61.4555V59.0651H40.644V61.4555H7.39349ZM7.39349 56.555V54.1655H40.644V56.555H7.39349ZM7.39349 51.6554V49.265H40.644V51.6554H7.39349ZM16.9092 42.5987V40.0976C16.9092 37.8017 18.2781 34.9271 22.0176 34.9271H25.9785C29.7927 34.9271 31.1256 37.8017 31.1256 40.0976V42.5987H16.9092ZM21.8952 32.9597C21.321 32.7239 20.8143 32.3882 20.3742 31.9526C19.9341 31.517 19.5957 31.0148 19.3581 30.446C19.1196 29.8763 19.0008 29.2841 19.0008 28.6685C19.0008 28.052 19.1196 27.4598 19.3581 26.8901C19.5957 26.3213 19.9341 25.8191 20.3742 25.3835C20.8143 24.9479 21.321 24.6122 21.8952 24.3764C22.4703 24.1406 23.0679 24.0227 23.6898 24.0227C24.3117 24.0227 24.9102 24.1406 25.4844 24.3764C26.0586 24.6122 26.5662 24.9479 27.0054 25.3835C27.4455 25.8191 27.7839 26.3213 28.0215 26.8901C28.26 27.4598 28.3788 28.052 28.3788 28.6685C28.3788 29.2841 28.26 29.8763 28.0215 30.446C27.7839 31.0148 27.4455 31.517 27.0054 31.9526C26.5662 32.3882 26.0586 32.7239 25.4844 32.9597C24.9102 33.1955 24.3117 33.3134 23.6898 33.3134C23.0679 33.3134 22.4703 33.1955 21.8952 32.9597Z" fill="#0F0F0F"/>
<path d="M69.84 37V15.444H61.136V13.03H81.366V15.444H72.662V37H69.84ZM84.4111 37V13.03H99.5411V15.376H87.1311V23.672H98.8271V26.018H87.1311V34.654H99.5411V37H84.4111ZM104.233 37V13.03H107.021V34.552H119.227V37H104.233ZM122.694 37V13.03H137.824V15.376H125.414V23.672H137.11V26.018H125.414V34.654H137.824V37H122.694ZM142.585 37V13.03H144.931L154.145 30.336L163.291 13.03H165.637V37H163.053V18.266L155.063 33.294H153.227L145.135 18.3V37H142.585ZM169.291 37L179.865 13.03H182.245L192.819 37H189.929L187.277 30.88H174.799L172.181 37H169.291ZM181.021 16.294L175.819 28.534H186.291L181.089 16.294H181.021ZM196.372 37V13.03H205.858C208.442 13.03 210.414 13.6307 211.774 14.832C213.157 16.0333 213.848 17.7447 213.848 19.966C213.848 21.734 213.361 23.1847 212.386 24.318C211.434 25.4513 210.074 26.188 208.306 26.528C209.349 26.8907 210.244 27.7747 210.992 29.18L215.208 37H212.148L208 29.316C207.479 28.364 206.878 27.718 206.198 27.378C205.518 27.038 204.623 26.868 203.512 26.868H199.16V37H196.372ZM199.16 24.658H205.45C209.213 24.658 211.094 23.094 211.094 19.966C211.094 16.8833 209.213 15.342 205.45 15.342H199.16V24.658ZM219.116 37V13.03H221.904V23.91H221.972L233.6 13.03H237.17L224.658 24.692L237.918 37H234.246L221.972 25.712H221.904V37H219.116ZM240.366 37V13.03H255.496V15.376H243.086V23.672H254.782V26.018H243.086V34.654H255.496V37H240.366ZM265.639 37V15.444H256.935V13.03H277.165V15.444H268.461V37H265.639ZM280.21 37V13.03H282.998V37H280.21ZM288.909 37V13.03H291.085L305.535 32.308V13.03H308.119V37H306.011L291.527 17.654V37H288.909ZM325.025 37.306C321.172 37.306 318.236 36.218 316.219 34.042C314.202 31.866 313.193 28.8627 313.193 25.032C313.193 22.4933 313.646 20.306 314.553 18.47C315.46 16.634 316.763 15.2173 318.463 14.22C320.163 13.2227 322.214 12.724 324.617 12.724C326.317 12.724 327.881 12.9847 329.309 13.506C330.737 14.0047 331.95 14.7413 332.947 15.716L331.859 17.96C330.771 17.008 329.649 16.3167 328.493 15.886C327.337 15.4553 326.034 15.24 324.583 15.24C321.863 15.24 319.778 16.1013 318.327 17.824C316.876 19.524 316.151 21.9267 316.151 25.032C316.151 28.2053 316.899 30.6307 318.395 32.308C319.891 33.9853 322.124 34.824 325.093 34.824C327.02 34.824 328.867 34.4953 330.635 33.838V26.732H324.549V24.522H333.049V35.606C332.414 35.946 331.644 36.2407 330.737 36.49C329.853 36.7393 328.912 36.932 327.915 37.068C326.918 37.2267 325.954 37.306 325.025 37.306ZM61.646 74L72.22 50.03H74.6L85.174 74H82.284L79.632 67.88H67.154L64.536 74H61.646ZM73.376 53.294L68.174 65.534H78.646L73.444 53.294H73.376ZM88.7275 74V50.03H98.2135C100.798 50.03 102.77 50.6533 104.13 51.9C105.512 53.1467 106.204 54.926 106.204 57.238C106.204 59.5273 105.512 61.3067 104.13 62.576C102.77 63.8227 100.798 64.446 98.2135 64.446H91.5155V74H88.7275ZM91.5155 62.1H97.8735C101.591 62.1 103.45 60.4793 103.45 57.238C103.45 53.974 101.591 52.342 97.8735 52.342H91.5155V62.1ZM110.243 74V50.03H119.729C122.313 50.03 124.285 50.6533 125.645 51.9C127.028 53.1467 127.719 54.926 127.719 57.238C127.719 59.5273 127.028 61.3067 125.645 62.576C124.285 63.8227 122.313 64.446 119.729 64.446H113.031V74H110.243ZM113.031 62.1H119.389C123.106 62.1 124.965 60.4793 124.965 57.238C124.965 53.974 123.106 52.342 119.389 52.342H113.031V62.1ZM141.557 74.306C139.336 74.306 137.398 73.8073 135.743 72.81C134.111 71.79 132.842 70.362 131.935 68.526C131.051 66.69 130.609 64.514 130.609 61.998C130.609 59.482 131.051 57.306 131.935 55.47C132.819 53.634 134.077 52.2173 135.709 51.22C137.364 50.2227 139.313 49.724 141.557 49.724C143.824 49.724 145.773 50.2227 147.405 51.22C149.06 52.2173 150.329 53.634 151.213 55.47C152.12 57.2833 152.573 59.448 152.573 61.964C152.573 64.48 152.12 66.6673 151.213 68.526C150.306 70.362 149.026 71.79 147.371 72.81C145.739 73.8073 143.801 74.306 141.557 74.306ZM141.557 71.824C144.118 71.824 146.102 70.9627 147.507 69.24C148.912 67.5173 149.615 65.1033 149.615 61.998C149.615 58.8927 148.912 56.49 147.507 54.79C146.102 53.0673 144.118 52.206 141.557 52.206C139.041 52.206 137.08 53.0673 135.675 54.79C134.27 56.49 133.567 58.8927 133.567 61.998C133.567 65.0807 134.27 67.4947 135.675 69.24C137.08 70.9627 139.041 71.824 141.557 71.824ZM157.558 74V50.03H160.346V74H157.558ZM166.257 74V50.03H168.433L182.883 69.308V50.03H185.467V74H183.359L168.875 54.654V74H166.257ZM197.307 74V52.444H188.603V50.03H208.833V52.444H200.129V74H197.307ZM211.946 74V50.03H214.292L223.506 67.336L232.652 50.03H234.998V74H232.414V55.266L224.424 70.294H222.588L214.496 55.3V74H211.946ZM240.964 74V50.03H256.094V52.376H243.684V60.672H255.38V63.018H243.684V71.654H256.094V74H240.964ZM260.786 74V50.03H262.962L277.412 69.308V50.03H279.996V74H277.888L263.404 54.654V74H260.786ZM291.836 74V52.444H283.132V50.03H303.362V52.444H294.658V74H291.836ZM313.329 74.306C311.448 74.306 309.748 74.068 308.229 73.592C306.71 73.0933 305.396 72.3793 304.285 71.45L305.271 69.206C306.427 70.09 307.64 70.7473 308.909 71.178C310.178 71.6087 311.652 71.824 313.329 71.824C315.369 71.824 316.876 71.45 317.851 70.702C318.848 69.9313 319.347 68.9227 319.347 67.676C319.347 66.6787 318.984 65.8853 318.259 65.296C317.556 64.7067 316.366 64.242 314.689 63.902L311.153 63.188C309.022 62.7347 307.424 61.998 306.359 60.978C305.316 59.9353 304.795 58.5527 304.795 56.83C304.795 55.402 305.158 54.1553 305.883 53.09C306.631 52.0247 307.662 51.1973 308.977 50.608C310.292 50.0187 311.81 49.724 313.533 49.724C315.142 49.724 316.638 49.9847 318.021 50.506C319.404 51.0047 320.571 51.73 321.523 52.682L320.537 54.858C319.517 53.9287 318.44 53.26 317.307 52.852C316.174 52.4213 314.904 52.206 313.499 52.206C311.708 52.206 310.28 52.6253 309.215 53.464C308.15 54.28 307.617 55.368 307.617 56.728C307.617 57.816 307.946 58.6773 308.603 59.312C309.283 59.9467 310.382 60.4113 311.901 60.706L315.437 61.454C317.726 61.93 319.415 62.6553 320.503 63.63C321.614 64.582 322.169 65.8853 322.169 67.54C322.169 68.8773 321.806 70.056 321.081 71.076C320.378 72.096 319.358 72.8893 318.021 73.456C316.706 74.0227 315.142 74.306 313.329 74.306Z" fill="#0F0F0F"/>
</svg>
